<svg width="18" height="17" viewBox="0 0 18 17" fill="none" xmlns="http://www.w3.org/2000/svg">
<path d="M9 16.6539L8.2423 15.9693C6.61025 14.4782 5.26025 13.202 4.1923 12.1404C3.12435 11.0789 2.2814 10.1426 1.66345 9.33175C1.0455 8.52085 0.613775 7.7872 0.368275 7.1308C0.122758 6.47438 0 5.81412 0 5.15002C0 3.87822 0.43205 2.81027 1.29615 1.94617C2.16025 1.08207 3.2282 0.650024 4.5 0.650024C5.37948 0.650024 6.20448 0.875024 6.975 1.32502C7.74552 1.77502 8.42052 2.42951 9 3.28847C9.57948 2.42951 10.2545 1.77502 11.025 1.32502C11.7955 0.875024 12.6205 0.650024 13.5 0.650024C14.7718 0.650024 15.8398 1.08207 16.7039 1.94617C17.568 2.81027 18 3.87822 18 5.15002C18 5.81412 17.8772 6.47438 17.6317 7.1308C17.3862 7.7872 16.9545 8.52085 16.3365 9.33175C15.7186 10.1426 14.8789 11.0789 13.8173 12.1404C12.7558 13.202 11.4026 14.4782 9.7577 15.9693L9 16.6539ZM9 15.3C10.6 13.8539 11.9167 12.6151 12.95 11.5837C13.9833 10.5523 14.8 9.65741 15.4 8.89907C16 8.14074 16.4167 7.46894 16.65 6.88368C16.8833 6.29843 17 5.72054 17 5.15002C17 4.15002 16.6667 3.31669 16 2.65002C15.3333 1.98336 14.5 1.65002 13.5 1.65002C12.7039 1.65002 11.9692 1.87727 11.2962 2.33175C10.6231 2.78623 10.0205 3.47053 9.48848 4.38465H8.51153C7.96666 3.45772 7.36089 2.77022 6.69423 2.32215C6.02756 1.87407 5.29615 1.65002 4.5 1.65002C3.51282 1.65002 2.68269 1.98336 2.00962 2.65002C1.33654 3.31669 1 4.15002 1 5.15002C1 5.72054 1.11667 6.29843 1.35 6.88368C1.58333 7.46894 2 8.14074 2.6 8.89907C3.2 9.65741 4.01667 10.5491 5.05 11.5741C6.08333 12.5991 7.4 13.8411 9 15.3Z" fill="black"/>
</svg>
