<svg width="18" height="17" viewBox="0 0 18 17" fill="none" xmlns="http://www.w3.org/2000/svg">
<path d="M9 16.6539L8.2423 15.9693C6.61025 14.4782 5.26025 13.202 4.1923 12.1404C3.12435 11.0789 2.2814 10.1426 1.66345 9.33175C1.0455 8.52085 0.613775 7.7872 0.368275 7.1308C0.122758 6.47438 0 5.81413 0 5.15002C0 3.87822 0.43205 2.81027 1.29615 1.94617C2.16025 1.08207 3.2282 0.650024 4.5 0.650024C5.37948 0.650024 6.20448 0.875024 6.975 1.32502C7.74552 1.77502 8.42052 2.42951 9 3.28847C9.57948 2.42951 10.2545 1.77502 11.025 1.32502C11.7955 0.875024 12.6205 0.650024 13.5 0.650024C14.7718 0.650024 15.8398 1.08207 16.7038 1.94617C17.5679 2.81027 18 3.87822 18 5.15002C18 5.81413 17.8772 6.47438 17.6317 7.1308C17.3862 7.7872 16.9545 8.52085 16.3365 9.33175C15.7186 10.1426 14.8789 11.0789 13.8173 12.1404C12.7558 13.202 11.4026 14.4782 9.7577 15.9693L9 16.6539Z" fill="black"/>
</svg>
