<svg width="74" height="24" viewBox="0 0 74 24" fill="none" xmlns="http://www.w3.org/2000/svg">
<path d="M18.744 0.959999L16.8 3.432H1.944L2.136 4.104H21.552C21.912 4.104 22.2 3.984 22.272 3.72C20.952 2.616 18.744 0.959999 18.744 0.959999ZM17.112 9L15.216 11.376H3.504L3.696 12.048H19.8C20.16 12.048 20.448 11.928 20.52 11.664C19.224 10.584 17.112 9 17.112 9ZM20.016 17.568L18.024 20.088H0.696L0.888 20.76H22.872C23.232 20.76 23.52 20.64 23.592 20.376C22.248 19.248 20.016 17.568 20.016 17.568ZM35.592 5.016V5.688H43.44V5.016H35.592ZM35.592 8.136V8.808H43.44V8.136H35.592ZM31.44 10.944L31.632 11.616H46.896C47.256 11.616 47.52 11.496 47.592 11.232C46.44 10.248 44.52 8.808 44.52 8.808L42.84 10.944H31.44ZM35.448 13.464L34.968 14.136H45.096V13.464H35.448ZM34.632 10.944C33.696 13.776 31.848 16.68 29.28 18.576L29.472 18.84C33.648 17.208 36.816 14.712 38.376 11.328V10.944H34.632ZM37.008 13.464C35.856 16.296 33.72 19.152 30.936 21.072L31.176 21.384C35.16 19.68 38.28 17.136 39.936 13.848V13.464H37.008ZM40.08 13.464C39.168 17.304 37.128 20.736 33.744 23.016L33.936 23.304C38.904 21.288 41.928 18.144 43.32 13.848V13.464H40.08ZM24.768 7.176L24.96 7.848H32.76C33.096 7.848 33.336 7.728 33.408 7.464C32.664 6.456 31.176 4.824 31.176 4.824L29.88 7.176H24.768ZM27.024 0.839999V15.984L30.312 14.976V1.872C31.008 1.776 31.152 1.536 31.2 1.2L27.024 0.839999ZM24.384 15.456L26.16 19.176C26.472 19.056 26.688 18.744 26.76 18.408C29.856 15.984 31.944 13.992 33.192 12.696L33.12 12.504C29.568 13.8 25.824 15.048 24.384 15.456ZM43.368 13.464C43.08 17.232 42.6 19.296 42 19.776C41.784 19.92 41.592 19.968 41.232 19.968C40.752 19.968 39.6 19.896 38.88 19.848V20.112C39.768 20.352 40.296 20.688 40.632 21.144C40.968 21.576 41.04 22.344 41.04 23.256C42.384 23.256 43.344 23.016 44.184 22.44C45.552 21.528 46.2 19.416 46.584 14.688C47.088 14.616 47.376 14.472 47.568 14.256L44.76 11.904L43.104 13.464H43.368ZM33.888 1.992V10.272H34.344C35.712 10.272 37.152 9.552 37.152 9.264V2.664H43.224V1.992H37.272L33.888 0.696V1.992ZM41.664 1.992V9.768H42.264C43.464 9.768 45.048 9 45.072 8.76V3.168C45.528 3.072 45.816 2.856 45.96 2.688L42.936 0.383999L41.424 1.992H41.664ZM71.664 10.104L67.752 8.952C66.96 13.632 64.8 19.272 60.48 22.752L60.696 22.992C66.432 20.256 69.24 15.096 70.728 10.584C71.352 10.584 71.568 10.392 71.664 10.104ZM66.744 0.887999L62.616 0.48C62.64 8.664 62.88 15.96 66.648 21.408C67.416 22.56 69.456 24 70.968 22.992C71.496 22.632 71.328 21.528 70.608 19.776L71.232 15.408L70.992 15.36C70.536 16.392 69.888 17.664 69.504 18.312C69.264 18.72 69.12 18.72 68.856 18.336C65.88 14.592 65.712 7.944 65.88 1.584C66.504 1.488 66.72 1.2 66.744 0.887999ZM68.232 5.496L66.912 7.68L61.104 8.472L61.368 9.12L70.824 7.824C71.136 7.776 71.4 7.584 71.424 7.32C70.2 6.552 68.232 5.496 68.232 5.496ZM66.648 1.68L66.456 1.824C67.2 2.664 67.8 4.032 67.8 5.28C70.32 7.32 73.056 2.352 66.648 1.68ZM61.224 18.192L57.936 17.52C57.936 18.456 57.864 19.824 57.72 20.712H58.08C58.92 20.112 59.808 19.344 60.36 18.72C60.888 18.696 61.152 18.48 61.224 18.192ZM60.096 10.44L58.896 11.952H52.776L52.968 12.624H61.704C62.04 12.624 62.28 12.504 62.352 12.24C61.488 11.496 60.096 10.44 60.096 10.44ZM59.544 16.248H54.336V16.92H59.544V16.248ZM53.112 12.864V18.024H53.544C54.768 18.024 55.536 17.616 55.536 17.448V14.568H58.872V17.664H59.328C60.6 17.664 61.392 17.256 61.392 17.16V14.712C61.896 14.616 62.112 14.496 62.256 14.304L59.952 12.6L58.8 13.896H55.776L53.112 12.864ZM54.048 17.52L53.808 17.64C54.096 18.192 54.312 19.152 54.168 19.968C55.848 21.72 58.632 18.6 54.048 17.52ZM59.472 4.776H59.736C59.712 5.472 59.616 6.672 59.472 7.392L59.712 7.536C60.576 7.176 61.68 6.504 62.352 5.976C62.832 5.928 63.072 5.88 63.264 5.688L60.84 3.384L59.472 4.776ZM57.168 5.616L54.168 5.352V8.736C54.168 10.152 54.432 10.608 56.256 10.608H57.768C60.408 10.608 61.272 10.272 61.272 9.336C61.272 8.904 61.056 8.712 60.456 8.472L60.336 8.448H60.12C59.952 8.472 59.712 8.52 59.568 8.544C59.448 8.568 59.208 8.568 59.04 8.568C58.848 8.592 58.44 8.592 58.056 8.592H56.952C56.544 8.592 56.496 8.52 56.496 8.256V6.192C56.904 6.12 57.144 5.928 57.168 5.616ZM51.36 20.568L52.656 23.544C52.92 23.472 53.184 23.28 53.328 22.968C57.792 21.624 60.816 20.592 62.904 19.8L62.88 19.464C58.032 19.992 53.352 20.448 51.36 20.568ZM49.704 4.536V9.744C49.704 13.848 49.776 18.936 48.6 22.968L48.864 23.136C52.464 19.344 52.584 13.584 52.584 9.744V4.776H53.04L49.704 3.6V4.536ZM57.96 5.832L57.12 7.152L52.488 7.776L52.752 8.376L59.4 7.488C59.688 7.44 59.928 7.272 59.928 7.032C59.184 6.528 57.96 5.832 57.96 5.832ZM58.176 0.767999L54.168 0.455998V5.16H57.408V1.392C57.984 1.296 58.152 1.08 58.176 0.767999ZM59.76 1.104L58.296 2.952H55.776V3.624H61.728C62.064 3.624 62.328 3.504 62.4 3.24C61.392 2.352 59.76 1.104 59.76 1.104ZM60.96 4.776H51.048V5.448H60.96V4.776Z" fill="black"/>
</svg>
