<svg width="164" height="59" viewBox="0 0 164 59" fill="none" xmlns="http://www.w3.org/2000/svg">
<path d="M89.2519 42.0918C89.7439 42.922 90.1744 44.152 90.2359 44.9823C91.6811 45.013 92.9419 44.9823 93.7721 44.8593C94.7254 44.7363 95.5249 44.4288 96.2629 43.7215C97.1854 42.799 97.7696 40.093 98.2309 34.6195C98.2924 34.1582 98.3231 33.1435 98.3231 33.1435H84.3011C84.5471 32.836 84.8546 32.4362 85.0699 32.098H98.9381V28.3772H75.9679V32.098H79.6271C78.8276 33.082 77.6899 34.0967 76.5521 34.8962L75.5066 32.2517L73.0774 33.1127V26.6552H75.9679V22.4117H73.0774V16.354H68.3726V22.4117H65.0824V26.6552H68.3726V34.7732C66.8351 35.2652 65.2976 35.7572 64.1906 36.0647L66.0356 40.5235C67.1119 40.093 68.3726 39.5702 69.6641 39.0475L69.9409 38.9245C70.0024 38.8937 70.0331 38.8937 70.0946 38.863L70.3714 38.74C70.4636 38.7092 70.5866 38.6785 70.6789 38.617L70.9556 38.494L71.5399 38.248C71.6321 38.2172 71.7551 38.1865 71.8474 38.125L72.1241 38.002C72.5546 37.8175 72.9851 37.633 73.4156 37.4485L73.7231 37.3255C73.8461 37.2947 73.9999 37.2332 74.1229 37.1717C75.0454 37.7867 76.4906 38.6785 77.0441 39.1705C78.3356 38.4632 79.6886 37.6022 80.8571 36.6182H82.5176C80.6726 38.4632 77.6899 40.3082 76.0909 40.9847L78.1204 44.1828C81.6259 42.3378 85.4389 39.2627 87.3146 36.6182H88.6369C87.1609 38.986 84.7316 41.4767 82.9174 42.43L85.2851 45.5665C87.0071 44.4595 88.2064 43.2603 89.2519 42.0918ZM96.5704 16.6H79.1966V27.4855H96.5704V16.6ZM83.9321 20.659V19.6135H91.9271V20.659H83.9321ZM83.9321 24.472V23.488H91.9271V24.472H83.9321ZM92.8804 36.6182H93.4646C93.1264 39.5087 92.6959 40.8617 92.2654 41.2615C91.9886 41.5382 91.7426 41.6305 91.2814 41.6305H91.0969C90.7279 41.6305 90.1744 41.6305 89.5901 41.6612C90.8816 40.1237 92.1116 38.248 92.8804 36.6182Z" fill="black"/>
<circle cx="29.1484" cy="29.1484" r="28.8281" stroke="black" stroke-width="0.640625"/>
<circle cx="82.3203" cy="29.1484" r="28.8281" stroke="black" stroke-width="0.640625"/>
<circle cx="134.852" cy="29.1484" r="28.8281" stroke="black" stroke-width="0.640625"/>
<mask id="mask0_1352_1643" style="mask-type:alpha" maskUnits="userSpaceOnUse" x="105" y="0" width="59" height="59">
<circle cx="134.852" cy="29.1484" r="29.1484" fill="#D9D9D9"/>
</mask>
<g mask="url(#mask0_1352_1643)">
<path d="M151.131 21.2125C150.516 20.0132 149.225 17.707 148.271 16.231L144.704 17.8607C145.596 19.4597 146.795 21.8582 147.318 23.0267L151.131 21.2125ZM129.268 23.734H133.973L133.819 24.5027L129.268 24.8102V23.734ZM127.7 36.526V35.6035H132.743V36.526H127.7ZM129.452 40.831C129.268 40.1545 128.868 39.1705 128.407 38.4325H131.513C131.328 39.1397 130.99 40.093 130.713 40.831L131.144 40.8925L126.869 41.3537L129.452 40.831ZM122.657 33.082H138.093V30.5297H122.626V23.734H125.393V25.0562L122.78 25.2407L123.21 27.424L125.393 27.2702C125.547 29.2075 126.439 29.9762 130.959 29.9762H132.035C135.326 29.9762 136.217 29.392 136.525 27.7007L133.665 27.1472C133.604 27.67 133.419 27.8545 131.943 27.8545H131.144C129.452 27.8545 129.268 27.7007 129.268 27.055V26.9935L134.219 26.6552L134.157 26.1325L136.986 26.4707L137.048 28.6847L140.153 28.3465C140.215 28.7462 140.246 29.1152 140.276 29.515L140.338 29.8532C140.676 32.713 141.137 35.5112 141.629 37.5407C140.522 38.617 139.169 39.6317 137.909 40.462V40.3697L134.588 40.6465C134.864 40.1237 135.264 39.3857 135.633 38.6477L133.634 38.4325H136.986V33.7277H123.671V38.4325H126.654L124.686 38.74C125.055 39.5087 125.486 40.6772 125.547 41.3845C124.348 41.4767 123.056 41.4767 122.042 41.5382L122.503 44.7055C124.133 44.5825 126.101 44.398 128.192 44.2443L128.499 44.2135C128.591 44.2135 128.714 44.1828 128.807 44.1828L129.145 44.152C129.606 44.1213 130.098 44.0598 130.559 44.029L130.898 43.9982C131.113 43.9675 131.328 43.9675 131.543 43.9368L131.851 43.906L132.189 43.8753C132.281 43.8753 132.404 43.8753 132.497 43.8445L132.989 43.8138L133.327 43.783C133.358 43.783 133.419 43.783 133.481 43.783L133.788 43.7523C133.973 43.7215 134.126 43.7215 134.28 43.6908L134.588 43.66C134.711 43.66 134.803 43.66 134.926 43.6293L135.233 43.5985C135.91 43.537 136.586 43.4755 137.232 43.414C137.816 43.8753 138.462 44.398 138.862 44.89C140.369 44.0598 141.845 43.0143 143.136 41.8457C144.243 43.7215 145.719 44.89 147.564 44.89C148.979 44.9515 150.916 43.66 152.023 37.9712L148.487 36.9872C148.394 38.4325 148.118 39.7547 147.656 39.7547C147.226 39.7547 146.734 39.1705 146.365 38.2172C148.302 35.7572 149.901 32.5592 150.885 29.7917L147.226 28.0082C146.734 29.4227 146.057 31.114 145.258 32.4977C145.104 31.1447 144.797 29.4227 144.643 27.8237L151.193 27.0242L150.639 23.1497L144.489 23.857C144.458 22.75 144.366 21.397 144.335 20.044L144.305 19.7365C144.243 18.445 144.212 17.1842 144.212 16.0157H139.723C139.723 16.6615 139.723 17.338 139.723 18.0452V18.5065C139.723 18.7832 139.723 19.0292 139.723 19.306V19.6135C139.723 20.044 139.723 20.4745 139.723 20.905V21.2125C139.723 22.3502 139.754 23.4572 139.784 24.4105L138.062 24.6257C138.339 23.6417 138.585 22.2887 138.831 21.274L135.787 20.8742L134.926 20.9665H130.129V20.0747H137.724V17.2457H130.129V15.9235H125.209V20.9665H118.598V29.3305C118.598 33.0512 118.382 38.8937 116.414 42.5223C117.306 42.8913 119.09 44.2135 119.766 44.8285C121.734 41.3845 122.503 35.788 122.657 31.6675V31.5445V33.082Z" fill="black"/>
</g>
<mask id="mask1_1352_1643" style="mask-type:alpha" maskUnits="userSpaceOnUse" x="0" y="0" width="59" height="59">
<circle cx="29.1484" cy="29.1484" r="29.1484" fill="#D9D9D9"/>
</mask>
<g mask="url(#mask1_1352_1643)">
<path d="M42.5068 18.9062H14.678V23.488H42.5068V18.9062ZM39.647 28.8385H17.261V33.3895H39.647V28.8385ZM44.321 38.9552H12.6793V43.5063H44.321V38.9552Z" fill="black"/>
</g>
</svg>
